# xmcd
# 
# Track frame offsets:
#     150
#     17167
#     31880
#     47340
#     58742
#     72467
#     87157
#     98837
#     111720
#     124380
#     137070
#     153360
#     171685
#     187460
#     199362
#     210650
#     222597
# 
# Disc length: 3068
# 
# Revision: 1
# Processed by: cddbd v1.5.2PL0 Copyright (c) Steve Scherf et al.
# Submitted via: fre:ac v1.0.17
# 
DISCID=130bfa11
DTITLE=Various Artist - The Best Jazz Vocals(Woman more)
DYEAR=2002
DGENRE=Jazz
TTITLE0=Ella Fitzgerad - Cheek To Cheek
TTITLE1=Sarah Vaughan - All of Me
TTITLE2=Billie Holiday - Let's Call The Whole Thing Off
TTITLE3=Dinah Washington - What a Difference a Day Made
TTITLE4=Nina Simone - My Baby Just Cares For Me
TTITLE5=Teri Thornton - It Ain't Necessarily So
TTITLE6=Dorothy Dandridge - Stay With It
TTITLE7=Anita O'day - Take the "A" Train
TTITLE8=Carmen McRae - I Was Doing All Right
TTITLE9=Astrud Gilberto - How Insesitive
TTITLE10=Ella Fitzgerald - A Fine Romance
TTITLE11=Sarah Vaughan - Lullaby Of Birdland
TTITLE12=Billie Holiday - Blue Moon
TTITLE13=Dinah Washigton - Caravan
TTITLE14=Peggy Lee - I've Got You Under My Skin
TTITLE15=Blossom Dearie - Give Him the OOH-LA-LA
TTITLE16=Patty Page - My Sin
EXTD=YEAR: 2002
EXTT0=
EXTT1=
EXTT2=
EXTT3=
EXTT4=
EXTT5=
EXTT6=
EXTT7=
EXTT8=
EXTT9=
EXTT10=
EXTT11=
EXTT12=
EXTT13=
EXTT14=
EXTT15=
EXTT16=
PLAYORDER=
